<svg width="19" height="19" viewBox="0 0 19 19" fill="none" xmlns="http://www.w3.org/2000/svg">
<path d="M9.50016 15.0417C8.20173 15.0578 6.91672 14.7776 5.74291 14.2223C4.83304 13.7783 4.01601 13.1652 3.33545 12.4157C2.61459 11.6408 2.04699 10.7363 1.66266 9.75017L1.5835 9.5L1.66662 9.24983C2.05122 8.26455 2.6176 7.36034 3.33625 6.58429C4.01656 5.83483 4.83332 5.22172 5.74291 4.77771C6.91673 4.22242 8.20173 3.94219 9.50016 3.95833C10.7986 3.94222 12.0836 4.22245 13.2574 4.77771C14.1673 5.22162 14.9843 5.83474 15.6649 6.58429C16.3871 7.35819 16.9549 8.26291 17.3377 9.24983L17.4168 9.5L17.3337 9.75017C16.0918 12.9832 12.9631 15.0966 9.50016 15.0417ZM9.50016 5.54167C6.80523 5.45722 4.3317 7.02612 3.25945 9.5C4.33153 11.974 6.80517 13.543 9.50016 13.4583C12.195 13.5426 14.6684 11.9737 15.7409 9.5C14.67 7.02492 12.1956 5.45544 9.50016 5.54167ZM9.50016 11.875C8.35805 11.8826 7.37008 11.0812 7.14176 9.96215C6.91344 8.84306 7.50854 7.71877 8.56234 7.27831C9.61614 6.83786 10.8343 7.20427 11.4703 8.15298C12.1062 9.10169 11.9823 10.3677 11.1745 11.1752C10.7323 11.6227 10.1293 11.8747 9.50016 11.875Z" fill="#F0F0F0"/>
</svg>
