<svg width="19" height="19" viewBox="0 0 19 19" fill="none" xmlns="http://www.w3.org/2000/svg">
<path d="M13.4583 17.4167H5.54167C4.66722 17.4167 3.95833 16.7078 3.95833 15.8333V5.54166H2.375V3.95833H5.54167V3.16666C5.54167 2.29221 6.25055 1.58333 7.125 1.58333H11.875C12.7495 1.58333 13.4583 2.29221 13.4583 3.16666V3.95833H16.625V5.54166H15.0417V15.8333C15.0417 16.7078 14.3328 17.4167 13.4583 17.4167ZM5.54167 5.54166V15.8333H13.4583V5.54166H5.54167ZM7.125 3.16666V3.95833H11.875V3.16666H7.125ZM11.875 14.25H10.2917V7.125H11.875V14.25ZM8.70833 14.25H7.125V7.125H8.70833V14.25Z" fill="#F0F0F0"/>
</svg>
